<?xml version="1.0" encoding="utf-8"?>
<!DOCTYPE svg PUBLIC "-//W3C//DTD SVG 1.0//EN" "http://www.w3.org/TR/2001/REC-SVG-20010904/DTD/svg10.dtd">
<svg version="1.0" id="favicon.svg" xmlns="http://www.w3.org/2000/svg" xmlns:xlink="http://www.w3.org/1999/xlink" x="0px" y="0px"
	 width="800px" height="800px" viewBox="0 0 800 800" enable-background="new 0 0 800 800" xml:space="preserve">
<g>
	<path fill="#ED1C24" d="M789.94,728.986c22.55,39.058,4.1,71.014-41,71.014h-236c-45.1,0-100.45-31.956-123-71.014L10.06,71.014
		C-12.49,31.957,5.96,0,51.06,0h236c45.1,0,100.45,31.957,123,71.014L789.94,728.986z"/>
</g>
<g>
	<path fill="#F15A24" d="M800.034,605c-0.019,44-17.881,48.734-39.692,10.521L448.658,69.478C426.847,31.265,445,0.002,489,0.005
		L720.291,0.02c44,0.002,79.984,36.005,79.966,80.005L800.034,605z"/>
</g>
<g>
	<path fill="#C1272D" d="M0.257,195c0.019-44,17.88-48.735,39.692-10.522l311.684,546.043c21.812,38.213,3.658,69.477-40.342,69.474
		L80,799.98c-44-0.003-79.985-36.005-79.966-80.005L0.257,195z"/>
</g>
</svg>
