<?xml version="1.0" encoding="utf-8"?>
<!-- Generator: Adobe Illustrator 16.0.3, SVG Export Plug-In . SVG Version: 6.00 Build 0)  -->
<!DOCTYPE svg PUBLIC "-//W3C//DTD SVG 1.1//EN" "http://www.w3.org/Graphics/SVG/1.1/DTD/svg11.dtd">
<svg version="1.1" id="圖層_1" xmlns="http://www.w3.org/2000/svg" xmlns:xlink="http://www.w3.org/1999/xlink" x="0px" y="0px"
	 width="220px" height="66px" viewBox="0 0 220 66" enable-background="new 0 0 220 66" xml:space="preserve">
<g>
	<g>
		<path fill="#009E66" d="M17.457,30.768V20.691h-3.763v-1.348h9.054v1.348h-3.779v10.076H17.457z"/>
		<path fill="#009E66" d="M24.344,30.768V19.344h1.513v4.691h5.937v-4.691h1.512v11.424h-1.512v-5.385h-5.937v5.385H24.344z"/>
		<path fill="#009E66" d="M35.854,30.768V19.344h8.259v1.348h-6.747v3.499h6.319v1.341h-6.319v3.889h7.012v1.348H35.854z"/>
		<path fill="#009E66" d="M5.013,46.725V35.302h4.286c0.872,0,1.573,0.116,2.1,0.348c0.527,0.23,0.94,0.587,1.239,1.067
			c0.299,0.48,0.449,0.983,0.449,1.506c0,0.488-0.133,0.949-0.397,1.38c-0.266,0.433-0.665,0.778-1.2,1.046
			c0.69,0.201,1.222,0.548,1.594,1.036c0.371,0.487,0.557,1.065,0.557,1.729c0,0.535-0.113,1.032-0.339,1.491
			c-0.227,0.461-0.506,0.815-0.837,1.064c-0.333,0.25-0.75,0.438-1.251,0.564c-0.5,0.128-1.116,0.191-1.842,0.191H5.013z
			 M6.524,40.103h2.471c0.67,0,1.15-0.045,1.441-0.134c0.384-0.112,0.674-0.303,0.869-0.568c0.195-0.264,0.292-0.598,0.292-0.996
			c0-0.38-0.091-0.714-0.272-1.002c-0.182-0.288-0.443-0.486-0.78-0.592c-0.338-0.108-0.916-0.161-1.737-0.161H6.524V40.103z
			 M6.524,45.376h2.845c0.488,0,0.831-0.017,1.028-0.053c0.348-0.063,0.639-0.167,0.873-0.313c0.233-0.146,0.425-0.354,0.576-0.635
			c0.151-0.277,0.226-0.598,0.226-0.962c0-0.427-0.109-0.796-0.327-1.11c-0.219-0.313-0.521-0.535-0.908-0.662
			c-0.387-0.126-0.944-0.19-1.671-0.19H6.524V45.376z"/>
		<path fill="#009E66" d="M15.75,46.725V35.302h8.26v1.348h-6.748v3.499h6.32v1.342h-6.32v3.886h7.013v1.349H15.75z"/>
		<path fill="#009E66" d="M25.849,43.056l1.425-0.126c0.068,0.572,0.225,1.04,0.472,1.406c0.247,0.367,0.629,0.664,1.15,0.89
			c0.519,0.227,1.103,0.339,1.752,0.339c0.577,0,1.086-0.087,1.526-0.257c0.442-0.172,0.771-0.406,0.987-0.704
			c0.215-0.301,0.323-0.625,0.323-0.979c0-0.359-0.104-0.671-0.312-0.939c-0.208-0.268-0.55-0.491-1.028-0.673
			c-0.307-0.12-0.984-0.307-2.034-0.559c-1.05-0.252-1.784-0.488-2.205-0.713c-0.545-0.286-0.952-0.639-1.219-1.063
			c-0.269-0.424-0.401-0.898-0.401-1.422c0-0.577,0.164-1.116,0.49-1.616c0.327-0.503,0.806-0.882,1.434-1.143
			c0.628-0.26,1.327-0.39,2.096-0.39c0.847,0,1.594,0.136,2.241,0.408c0.646,0.274,1.144,0.674,1.492,1.203
			c0.348,0.531,0.535,1.132,0.561,1.802l-1.448,0.108c-0.079-0.721-0.342-1.268-0.792-1.636c-0.45-0.369-1.113-0.553-1.991-0.553
			c-0.914,0-1.581,0.167-1.998,0.502c-0.418,0.335-0.628,0.739-0.628,1.212c0,0.41,0.148,0.747,0.445,1.011
			c0.291,0.267,1.05,0.538,2.279,0.816c1.229,0.278,2.071,0.521,2.528,0.728c0.666,0.308,1.156,0.695,1.473,1.166
			c0.316,0.469,0.476,1.012,0.476,1.624c0,0.608-0.174,1.181-0.522,1.718c-0.349,0.538-0.848,0.957-1.5,1.256
			s-1.386,0.447-2.201,0.447c-1.034,0-1.9-0.152-2.599-0.452c-0.699-0.3-1.248-0.755-1.644-1.359
			C26.078,44.503,25.87,43.818,25.849,43.056z"/>
		<path fill="#009E66" d="M39.913,46.725V36.649h-3.764v-1.348h9.054v1.348h-3.779v10.075H39.913z"/>
	</g>
	<g>
		<path fill="#101010" d="M59.905,19.509h12.348c2.433,0,4.4,0.33,5.897,0.992c1.499,0.658,2.737,1.606,3.715,2.842
			s1.688,2.675,2.128,4.313c0.44,1.639,0.661,3.375,0.661,5.21c0,2.874-0.327,5.103-0.981,6.687
			c-0.655,1.584-1.563,2.912-2.725,3.981c-1.162,1.07-2.41,1.781-3.743,2.137c-1.822,0.49-3.474,0.734-4.953,0.734H59.905V19.509z
			 M68.215,25.599v14.696h2.037c1.736,0,2.972-0.192,3.706-0.578c0.734-0.385,1.309-1.059,1.725-2.019
			c0.416-0.959,0.624-2.515,0.624-4.667c0-2.851-0.465-4.801-1.395-5.854s-2.47-1.579-4.624-1.579H68.215z"/>
		<path fill="#101010" d="M89.002,19.509h22.273v5.742H97.331v4.275h12.935v5.485H97.331v5.302h14.347v6.091H89.002V19.509z"/>
		<path fill="#101010" d="M114.705,37.507l7.908-0.497c0.17,1.285,0.52,2.264,1.045,2.938c0.856,1.088,2.08,1.633,3.67,1.633
			c1.186,0,2.101-0.279,2.742-0.836c0.643-0.557,0.963-1.201,0.963-1.934c0-0.699-0.306-1.322-0.916-1.874
			c-0.612-0.549-2.031-1.069-4.257-1.558c-3.646-0.82-6.244-1.908-7.797-3.268c-1.566-1.356-2.349-3.086-2.349-5.191
			c0-1.382,0.4-2.688,1.201-3.917c0.801-1.229,2.006-2.193,3.614-2.897s3.813-1.055,6.614-1.055c3.438,0,6.057,0.638,7.861,1.917
			c1.803,1.277,2.877,3.311,3.22,6.101l-7.834,0.457c-0.208-1.209-0.646-2.091-1.312-2.641c-0.668-0.551-1.588-0.826-2.762-0.826
			c-0.966,0-1.693,0.205-2.184,0.613c-0.488,0.41-0.733,0.909-0.733,1.498c0,0.426,0.202,0.813,0.605,1.154
			c0.392,0.354,1.321,0.685,2.788,0.991c3.633,0.782,6.236,1.575,7.807,2.376c1.572,0.801,2.717,1.794,3.432,2.98
			c0.715,1.188,1.072,2.515,1.072,3.982c0,1.724-0.476,3.313-1.431,4.77c-0.954,1.455-2.287,2.561-3.999,3.311
			c-1.713,0.752-3.872,1.13-6.477,1.13c-4.574,0-7.742-0.882-9.504-2.642C115.935,42.459,114.938,40.223,114.705,37.507z"/>
		<path fill="#101010" d="M143.619,19.509h8.33v26.896h-8.33V19.509z"/>
		<path fill="#101010" d="M171.434,36.664v-5.596h12.842v11.464c-2.459,1.677-4.633,2.818-6.521,3.423
			c-1.891,0.605-4.132,0.909-6.725,0.909c-3.192,0-5.795-0.545-7.807-1.634c-2.013-1.088-3.572-2.711-4.679-4.862
			s-1.659-4.623-1.659-7.411c0-2.937,0.604-5.488,1.815-7.66s2.984-3.818,5.321-4.944c1.821-0.869,4.273-1.302,7.355-1.302
			c2.973,0,5.195,0.269,6.67,0.806c1.473,0.54,2.697,1.375,3.67,2.505c0.971,1.132,1.702,2.566,2.191,4.303l-8.018,1.431
			c-0.33-1.015-0.889-1.79-1.679-2.329c-0.788-0.539-1.796-0.808-3.018-0.808c-1.823,0-3.274,0.632-4.356,1.899
			c-1.084,1.265-1.625,3.268-1.625,6.008c0,2.911,0.547,4.988,1.643,6.236c1.095,1.248,2.62,1.873,4.578,1.873
			c0.929,0,1.816-0.136,2.66-0.402c0.844-0.271,1.809-0.729,2.898-1.378v-2.53H171.434z"/>
		<path fill="#101010" d="M189.266,19.509h7.76l10.127,14.879V19.509h7.835v26.896h-7.835l-10.071-14.768v14.768h-7.815V19.509z"/>
	</g>
	<rect x="50.986" y="18" fill="#009E66" width="1.583" height="30"/>
</g>
</svg>
